# xmcd
#
# Track frame offsets:
#	150
#	18204
#	32317
#	50401
#	65528
#	79304
#	99621
#	115917
#	129960
#	146577
#	164368
#	181562
#	197410
#	212349
#
# Disc length: 3081 seconds
#
# Revision: 4
# Processed by: cddbd v1.5.2PL0 Copyright (c) Steve Scherf et al.
# Submitted via: EZCDAudioConverter 6.0.2.1
#
DISCID=ac0c070e
DTITLE=Trace Adkins - Til The Last Shots Fired
DYEAR=2010
DGENRE=Country
TTITLE0=Honky Tonk Badonkadonk
TTITLE1=Rough and Ready
TTITLE2=(This Ain't) No Thinkin' Thing
TTITLE3=Chrome
TTITLE4=Marry For Money
TTITLE5=Then They Do
TTITLE6=Swing
TTITLE7=I Left Something Turned On At Home
TTITLE8=I'm Tryin' (Radio Edit)
TTITLE9=All I Ask For Anymore
TTITLE10=Big Time
TTITLE11=There's A Girl In Texas
TTITLE12=Hot Mama
TTITLE13=Arlington
EXTD=
EXTT0=
EXTT1=
EXTT2=
EXTT3=
EXTT4=
EXTT5=
EXTT6=
EXTT7=
EXTT8=
EXTT9=
EXTT10=
EXTT11=
EXTT12=
EXTT13=
PLAYORDER=
